<mxfile host="app.diagrams.net" modified="2023-10-23T17:19:40.979Z" agent="Mozilla/5.0 (Windows NT 10.0; Win64; x64; rv:109.0) Gecko/20100101 Firefox/115.0" version="22.0.6" etag="6J-RJXXezaaBmDSN0P09" type="github">
  <diagram name="Страница — 1" id="44U-PCkVH0S8t7sFFjaM">
    <mxGraphModel>
      <root>
        <mxCell id="0" />
        <mxCell id="1" parent="0" />
      </root>
    </mxGraphModel>
  </diagram>
</mxfile>
